<svg width="512" height="512" viewBox="0 0 512 512" style="color:currentColor" xmlns="http://www.w3.org/2000/svg" class="h-full w-full"><rect width="512" height="512" x="0" y="0" rx="30" fill="transparent" stroke="transparent" stroke-width="0" stroke-opacity="100%" paint-order="stroke"></rect><svg width="512px" height="512px" viewBox="0 0 24 24" fill="currentColor" x="0" y="0" role="img" style="display:inline-block;vertical-align:middle" xmlns="http://www.w3.org/2000/svg"><g fill="currentColor"><path d="M19 2H6c-1.206 0-3 .799-3 3v14c0 2.201 1.794 3 3 3h15v-2H6.012C5.55 19.988 5 19.806 5 19c0-.101.009-.191.024-.273c.112-.576.584-.717.988-.727H21V4a2 2 0 0 0-2-2zm0 9l-2-1l-2 1V4h4v7z" fill="currentColor"/></g></svg></svg>