 <svg  version="1.0" xmlns="http://www.w3.org/2000/svg"  width="300.000000pt" height="307.000000pt" viewBox="0 0 300.000000 307.000000"  preserveAspectRatio="xMidYMid meet">  <g transform="translate(0.000000,307.000000) scale(0.100000,-0.100000)" fill="#bbadff" stroke="none"> <path d="M1410 2973 c-80 -6 -245 -35 -257 -45 -28 -23 -9 -24 75 -4 134 31 418 30 561 -2 273 -61 502 -184 696 -373 167 -163 287 -352 356 -562 17 -51 32 -98 35 -106 3 -11 8 -11 16 -3 13 13 -45 188 -99 296 -194 387 -548 667 -968 764 -89 21 -282 44 -340 40 -16 -1 -50 -3 -75 -5z"/> <path d="M1310 2511 c-50 -10 -88 -32 -172 -99 -211 -169 -475 -529 -502 -685 -21 -115 41 -103 266 50 133 89 123 82 116 89 -3 3 -55 -28 -114 -69 -123 -84 -230 -141 -246 -131 -18 11 -1 89 37 164 101 201 307 458 465 580 88 69 188 108 204 81 3 -5 -6 -30 -19 -57 -27 -52 -30 -64 -17 -64 12 0 52 87 52 114 0 18 -23 42 -33 35 -1 -1 -18 -4 -37 -8z"/> <path d="M1730 2291 l-54 -49 -145 -7 c-79 -4 -150 -9 -158 -12 -20 -8 -15 -25 6 -18 17 5 273 24 278 20 2 -1 -5 -10 -15 -21 -9 -10 -53 -59 -97 -109 -44 -49 -84 -89 -89 -87 -5 2 -36 -7 -68 -19 -63 -23 -80 -20 -60 11 16 26 15 30 -3 30 -19 0 -95 -49 -95 -61 0 -13 18 -11 44 6 22 15 24 14 29 -5 7 -26 24 -25 93 5 32 14 58 24 60 23 1 -2 -25 -34 -58 -73 -123 -144 -188 -255 -148 -255 6 0 10 10 10 23 0 28 82 137 240 319 201 230 183 216 261 211 l67 -5 -62 -54 c-33 -30 -74 -60 -91 -68 -96 -44 -100 -47 -75 -43 14 3 34 8 45 12 11 4 -3 -16 -32 -46 -29 -30 -53 -58 -53 -62 0 -14 23 -6 52 18 36 30 53 33 38 5 -17 -33 12 -35 70 -6 28 14 53 26 55 26 2 0 1 -10 -2 -21 -5 -19 -3 -21 22 -17 23 5 15 -6 -56 -78 -45 -46 -96 -88 -113 -94 -135 -49 -251 -125 -373 -244 -116 -112 -113 -131 10 -70 106 54 230 143 332 238 86 82 93 86 163 101 40 9 92 16 115 14 56 -2 67 -1 67 11 0 15 -107 12 -170 -4 -30 -8 -56 -14 -56 -13 -1 1 36 42 82 91 101 107 112 131 38 81 -36 -25 -59 -26 -36 -3 7 7 12 15 12 19 0 10 -60 -5 -98 -25 -35 -18 -54 -14 -34 6 28 28 11 33 -43 13 -12 -5 -3 10 24 38 31 32 67 56 116 77 40 16 104 45 144 64 61 29 77 33 104 25 40 -11 47 -11 47 0 0 5 -14 12 -31 16 l-31 7 35 23 c30 21 47 43 47 62 0 16 -102 -9 -164 -41 -63 -32 -79 -36 -146 -36 l-75 1 48 44 c26 24 47 46 47 49 0 14 -19 3 -70 -43z m330 10 c0 -5 -17 -23 -37 -40 -32 -26 -46 -31 -93 -31 l-55 0 30 18 c29 18 131 60 148 61 4 1 7 -3 7 -8z m-110 -85 c0 -6 -191 -88 -195 -84 -2 2 19 23 48 46 45 36 59 42 100 42 26 0 47 -2 47 -4z m-370 -492 c-25 -25 -82 -74 -128 -108 -85 -64 -249 -162 -258 -154 -6 7 117 122 191 179 55 42 207 127 230 129 5 0 -11 -21 -35 -46z"/> <path d="M2176 2178 c-9 -17 -14 -33 -12 -35 5 -5 46 47 46 58 0 20 -20 7 -34 -23z"/> <path d="M2112 2028 c-7 -7 -12 -24 -12 -38 0 -18 -8 -29 -29 -38 -33 -14 -43 -32 -31 -52 12 -19 50 2 71 39 12 20 30 31 65 41 27 7 53 17 59 21 14 14 -25 10 -70 -6 -45 -16 -54 -12 -37 15 13 22 1 35 -16 18z"/> <path d="M1197 2015 c-4 -8 -40 -40 -82 -71 -42 -31 -74 -58 -71 -61 3 -3 11 -2 18 4 120 88 158 119 158 130 0 18 -17 17 -23 -2z"/> <path d="M403 1315 c-64 -45 -15 -150 62 -131 36 9 26 32 -13 28 -40 -4 -60 27 -43 65 10 21 17 24 40 20 20 -4 31 -2 34 8 11 26 -46 34 -80 10z"/> <path d="M703 1318 c-68 -33 -39 -138 38 -138 28 0 69 44 69 75 0 30 -41 75 -67 74 -10 0 -28 -5 -40 -11z m65 -30 c7 -7 12 -21 12 -33 0 -47 -62 -63 -81 -21 -22 47 33 90 69 54z"/> <path d="M1016 1309 c-71 -56 9 -166 82 -112 38 28 41 75 8 108 -31 30 -55 32 -90 4z m72 -21 c15 -15 15 -51 0 -66 -29 -29 -84 2 -72 42 11 36 48 48 72 24z"/> <path d="M1315 1255 c-1 -55 3 -75 12 -75 8 0 13 12 13 30 0 17 4 30 8 30 4 0 16 -13 25 -30 11 -18 26 -30 38 -30 19 0 18 4 -12 41 l-32 40 34 35 c28 29 30 34 13 34 -10 0 -31 -14 -46 -32 l-27 -33 -1 33 c0 19 -5 32 -12 32 -9 0 -13 -22 -13 -75z"/> <path d="M1605 1255 l0 -75 36 0 c19 0 40 5 47 12 16 16 15 55 0 61 -10 4 -10 7 0 18 6 7 12 16 12 20 0 18 -34 39 -63 39 l-32 0 0 -75z m65 30 c0 -8 -9 -15 -20 -15 -11 0 -20 7 -20 15 0 8 9 15 20 15 11 0 20 -7 20 -15z m5 -60 c0 -5 -10 -11 -22 -13 -16 -2 -23 2 -23 13 0 11 7 15 23 13 12 -2 22 -7 22 -13z"/> <path d="M1905 1305 c-34 -33 -33 -77 1 -104 35 -28 65 -26 94 3 31 34 29 74 -4 103 -35 30 -61 29 -91 -2z m86 -26 c16 -30 -3 -69 -34 -69 -29 0 -47 17 -47 45 0 45 60 63 81 24z"/> <path d="M2225 1305 c-14 -13 -25 -36 -25 -50 0 -14 11 -37 25 -50 39 -39 86 -32 111 17 26 51 -12 108 -72 108 -8 0 -26 -11 -39 -25z m86 -26 c16 -30 -3 -69 -34 -69 -29 0 -47 17 -47 45 0 45 60 63 81 24z"/> <path d="M2530 1255 c0 -63 3 -75 16 -75 13 0 15 7 11 30 -8 39 9 39 31 0 9 -16 25 -30 35 -30 23 0 22 7 -8 42 -31 37 -31 39 1 77 37 44 4 42 -36 -1 l-30 -33 6 33 c5 25 3 32 -10 32 -13 0 -16 -12 -16 -75z"/> <path d="M115 1154 c10 -58 70 -208 121 -304 202 -380 572 -650 1009 -736 183 -37 601 -15 619 32 7 17 12 17 -74 -1 -513 -108 -1062 90 -1390 502 -110 138 -208 323 -249 472 -20 73 -49 100 -36 35z"/> </g> </svg> 