<svg width="512" height="512" viewBox="0 0 512 512" style="color:currentColor" xmlns="http://www.w3.org/2000/svg" class="h-full w-full"><rect width="512" height="512" x="0" y="0" rx="30" fill="transparent" stroke="transparent" stroke-width="0" stroke-opacity="100%" paint-order="stroke"></rect><svg width="512px" height="512px" viewBox="0 0 32 32" fill="currentColor" x="0" y="0" role="img" style="display:inline-block;vertical-align:middle" xmlns="http://www.w3.org/2000/svg"><g fill="currentColor"><path fill="currentColor" d="m7.416 3.604l4.605 4.98l-3.251 6.395l6.855-1.229l3.12 7.532L32 3.902zm-.843 10.781l1.276-1.047l-1.647.521l-.172-.24l.683-.661l-.891.359c-3.407 1.323-5.823 4.62-5.823 8.485a9.043 9.043 0 0 0 2.844 6.593A9.006 9.006 0 0 1 1.66 23.92c0-3.817 2.417-7.219 5.755-8.557l.423-1.02l-1 .437l-.281-.38zm5.818-2.625L14.522 8l12.531-2.932z"/></g></svg></svg>